<?xml version="1.0" encoding="UTF-8"?>
<svg width="252px" height="242px" viewBox="0 0 252 242" version="1.1" xmlns="http://www.w3.org/2000/svg" xmlns:xlink="http://www.w3.org/1999/xlink">
    <!-- Generator: Sketch 52.6 (67491) - http://www.bohemiancoding.com/sketch -->
    <title>Group 6 Copy</title>
    <desc>Created with Sketch.</desc>
    <g id="v3" stroke="none" stroke-width="1" fill="none" fill-rule="evenodd">
        <g transform="translate(-990.000000, -1286.000000)" id="Group-6-Copy">
            <g transform="translate(1116.000000, 1407.000000) scale(1, -1) translate(-1116.000000, -1407.000000) translate(990.000000, 1286.000000)">
                <path d="M252,0 L252,98 C191.248678,98 142,54.1239055 142,0 L252,0 Z" id="Combined-Shape-Copy-6" fill="#62C58E"></path>
                <path d="M224,98 L224,98 C239.463973,98 252,110.536027 252,126 L252,172 L252,172 C236.536027,172 224,159.463973 224,144 L224,98 Z" id="Rectangle" fill="#FA5A6E"></path>
                <path d="M57,24 L57,24 C72.463973,24 85,36.536027 85,52 L85,98 L85,98 C69.536027,98 57,85.463973 57,70 L57,24 Z" id="Rectangle-Copy-9" fill="#F4D98F"></path>
                <path d="M181,168 L183,168 L183,242 L181,242 C160.565464,242 144,225.434536 144,205 L144,205 C144,184.565464 160.565464,168 181,168 Z" id="Rectangle-Copy-7" fill="#9235EF" transform="translate(163.500000, 205.000000) scale(-1, 1) translate(-163.500000, -205.000000) "></path>
                <path d="M121,24 L143,24 L143,98 L121,98 C100.565464,98 84,81.4345357 84,61 L84,61 C84,40.5654643 100.565464,24 121,24 Z" id="Rectangle-Copy-8" fill="#1B4FB0" transform="translate(113.500000, 61.000000) scale(-1, 1) translate(-113.500000, -61.000000) "></path>
                <circle id="Oval" fill="#00D3BF" cx="203" cy="49" r="49"></circle>
                <path d="M223.777233,139.111111 C221.75982,157.610907 206.287579,172 187.5,172 C167.341607,172 151,155.434536 151,135 C151,114.565464 167.341607,98 187.5,98 L224,98 L224,139.111111 L223.777233,139.111111 Z" id="Combined-Shape" fill="#BA83E5"></path>
                <path d="M251.800735,209 C249.941088,227.553261 235.293659,242 217.5,242 C198.446176,242 183,225.434536 183,205 C183,184.744508 198.176689,168.290584 217,168.003807 L252,168 L252,209 L251.800735,209 Z" id="Combined-Shape-Copy-11" fill="#00D3BF" transform="translate(217.500000, 205.000000) scale(-1, -1) translate(-217.500000, -205.000000) "></path>
                <rect id="Rectangle" fill="#1B4FB0" x="80" y="98" width="64" height="144"></rect>
                <circle id="Oval" fill="#FF806B" cx="72" cy="170" r="72"></circle>
            </g>
        </g>
    </g>
</svg>